<?xml version="1.0" encoding="UTF-8" standalone="no"?>
<!-- Created with Inkscape (http://www.inkscape.org/) -->

<svg
   width="55mm"
   height="55mm"
   viewBox="0 0 55 55"
   version="1.1"
   id="svg1"
   inkscape:version="1.3 (0e150ed6c4, 2023-07-21)"
   sodipodi:docname="logo-variation-1.svg"
   xmlns:inkscape="http://www.inkscape.org/namespaces/inkscape"
   xmlns:sodipodi="http://sodipodi.sourceforge.net/DTD/sodipodi-0.dtd"
   xmlns="http://www.w3.org/2000/svg"
   xmlns:svg="http://www.w3.org/2000/svg">
  <sodipodi:namedview
     id="namedview1"
     pagecolor="#ffffff"
     bordercolor="#000000"
     borderopacity="0"
     inkscape:showpageshadow="0"
     inkscape:pageopacity="0"
     inkscape:pagecheckerboard="0"
     inkscape:deskcolor="#505050"
     inkscape:document-units="mm"
     inkscape:zoom="5.1445126"
     inkscape:cx="100.00947"
     inkscape:cy="125.76507"
     inkscape:window-width="1564"
     inkscape:window-height="1648"
     inkscape:window-x="2041"
     inkscape:window-y="4"
     inkscape:window-maximized="0"
     inkscape:current-layer="layer2" />
  <defs
     id="defs1" />
  <g
     inkscape:groupmode="layer"
     id="layer2"
     inkscape:label="box">
    <path
       style="color:#000000;fill:#ff0000;fill-rule:evenodd;stroke-linecap:round;-inkscape-stroke:none"
       d="M 22.651886,8.0242205 C 13.428111,8.0769245 3.9345897,17.224985 5.09375,29.087891 6.1843424,40.249069 17.181553,48.437216 28.433594,46.751953 38.766147,45.204406 46.436313,35.444026 44.822266,24.958984 43.350202,15.396288 34.292464,8.3018255 24.574219,9.8457031 15.781661,11.242523 9.2632094,19.599069 10.738281,28.550781 c 1.321884,8.022064 8.978539,13.964735 17.164063,12.556641 7.251112,-1.247354 12.61708,-8.205201 11.273437,-15.625 -1.173376,-6.479563 -7.433172,-11.271107 -14.08789,-9.988281 -5.707214,1.100175 -9.92477,6.666083 -8.697266,12.55664 1.028127,4.933784 5.903493,8.579503 11.03125,7.398438 4.158899,-0.957911 7.236292,-5.154478 6.085937,-9.521485 -0.890953,-3.382259 -4.42408,-5.899541 -8.033203,-4.748047 -1.302635,0.415607 -2.385981,1.300018 -3.060547,2.466797 -0.674565,1.16678 -0.905235,2.712823 -0.289062,4.138672 0.400115,0.925883 1.095384,1.635995 2.027344,2.066406 0.931959,0.430412 2.30352,0.461016 3.316406,-0.335937 0.79652,-0.626713 0.928433,-1.162381 0.982422,-1.966797 0.02699,-0.402208 -0.0061,-0.950529 -0.439453,-1.490234 -0.433391,-0.539705 -1.238271,-0.76879 -1.796875,-0.712891 -0.610096,0.17985 -1.048393,0.714169 -1.105469,1.347656 -0.04235,-0.0531 -0.122292,-0.100768 -0.138672,-0.138672 -0.201469,-0.466208 -0.145382,-0.88637 0.126953,-1.357421 0.272335,-0.471051 0.797052,-0.896177 1.31836,-1.0625 1.744293,-0.556519 3.620342,0.78682 4.09375,2.583984 0.668124,2.53635 -1.229767,5.120857 -3.783204,5.708984 -3.319032,0.764466 -6.610499,-1.697237 -7.300781,-5.009765 -0.853718,-4.096831 2.174293,-8.093612 6.248047,-8.878907 4.871815,-0.939136 9.575336,2.659594 10.451172,7.496094 C 37.147254,31.6802 32.97729,37.087398 27.376953,38.050781 20.959843,39.154668 14.845701,34.411848 13.796875,28.046875 12.612368,20.858506 17.930337,14.038982 25.060547,12.90625 33.019592,11.641846 40.542331,17.53378 41.757812,25.429687 43.101583,34.158974 36.636576,42.390163 27.974609,43.6875 18.475412,45.110232 9.5386454,38.066985 8.1601563,28.638672 6.6587747,18.369824 13.954285,8.6514821 24.268487,8.86804 c 8.187144,0.1718979 10.182373,2.621656 10.182373,2.621656 0,0 -3.682022,-3.5118552 -11.798974,-3.4654755 z"
       id="path3"
       transform="matrix(-1.0158518,0.57712347,-0.57049126,-1.0276615,69.163538,38.599994)"
       sodipodi:nodetypes="sssssssssssssssssscccssssssssssssssscs" />
    <rect
       style="fill:#ffffff;fill-opacity:0.99;fill-rule:evenodd;stroke:none;stroke-width:3.96698;stroke-linecap:round;stroke-linejoin:round;stroke-dasharray:none;stroke-opacity:1;paint-order:normal"
       id="rect3"
       width="23.362797"
       height="46.771412"
       x="3.8092744"
       y="1.0321928"
       inkscape:label="rect3" />
  </g>
  <g
     inkscape:groupmode="layer"
     id="layer3"
     inkscape:label="layer 2"
     sodipodi:insensitive="true"
     style="display:none">
    <ellipse
       style="fill:none;fill-rule:evenodd;stroke:#000000;stroke-width:0.178964;stroke-dasharray:none;stroke-opacity:0.319588;image-rendering:auto"
       id="path1"
       cx="29.546103"
       cy="24.467569"
       rx="22.37862"
       ry="22.378622" />
  </g>
</svg>
